# xmcd
#
# Track frame offsets:
#	182
#	14037
#	24037
#	37020
#	47990
#	61387
#	73200
#	85207
#	97260
#	108982
#	121097
#	133735
#	144795
#	157632
#	167820
#	180117
#	193102
#	206602
#	218110
#	229840
#	239777
#	250795
#	261397
#	273555
#	287157
#	297970
#	311120
#	323867
#
# Disc length: 4460 seconds
#
# Revision: 1
# Processed by: cddbd v1.5.2PL0 Copyright (c) Steve Scherf et al.
# Submitted via: EZCDAudioConverter 6.0.8.1
#
DISCID=a8116a1c
DTITLE=The Louvin Brothers - The Louvin Brothers Collection, 1949-1962 [CD1
DTITLE=)
DYEAR=2016
DGENRE=Country
TTITLE0=Alabama
TTITLE1=They've Got the Church Out Numbered
TTITLE2=The Weapon of Prayer
TTITLE3=You'll Be Rewarded Over There
TTITLE4=The Get Acquainted Waltz
TTITLE5=Insured Beyond the Grave
TTITLE6=Do You Live What You Preach
TTITLE7=The Sons and Daughters of God
TTITLE8=The Family Who Prays
TTITLE9=Born Again
TTITLE10=Preach the Gospel
TTITLE11=God Bless Her 'Cause She's My Mother
TTITLE12=Satan Lied to Me
TTITLE13=Satan and the Saint
TTITLE14=Swing Low Sweet Chariot
TTITLE15=Make Him a Soldier
TTITLE16=When I Stop Dreaming
TTITLE17=Pitfall
TTITLE18=Just Rehearsing
TTITLE19=I Don't Believe You've Met My Baby
TTITLE20=Hoping That You're Hoping
TTITLE21=Childish Love
TTITLE22=Cash on the Barrelhead
TTITLE23=You're Running Wild
TTITLE24=Kentucky
TTITLE25=In the Pines
TTITLE26=My Brother's Will
TTITLE27=Don't Laugh
EXTD=
EXTT0=
EXTT1=
EXTT2=
EXTT3=
EXTT4=
EXTT5=
EXTT6=
EXTT7=
EXTT8=
EXTT9=
EXTT10=
EXTT11=
EXTT12=
EXTT13=
EXTT14=
EXTT15=
EXTT16=
EXTT17=
EXTT18=
EXTT19=
EXTT20=
EXTT21=
EXTT22=
EXTT23=
EXTT24=
EXTT25=
EXTT26=
EXTT27=
PLAYORDER=
